<svg xmlns="http://www.w3.org/2000/svg" xmlns:xlink="http://www.w3.org/1999/xlink" preserveAspectRatio="xMidYMid" width="19" height="16" viewBox="0 0 19 16">
  <defs>
    <style>

      .cls-2 {
        fill: #ffffff;
      }
    </style>
  </defs>
  <path d="M12.389,6.831 C11.906,8.060 10.817,9.048 10.817,9.762 C10.817,10.475 11.936,11.522 11.936,11.522 C11.936,11.522 18.271,13.681 18.271,14.644 C18.271,15.608 18.271,15.953 18.271,15.953 C18.271,15.953 -0.001,15.955 -0.001,15.955 C-0.001,15.955 -0.001,15.572 -0.001,14.644 C-0.001,13.717 6.430,11.488 6.430,11.488 C6.430,11.488 7.406,10.416 7.406,9.769 C7.406,9.122 6.326,8.072 5.839,6.836 C5.559,6.122 5.343,3.628 5.643,2.424 C6.121,0.502 8.079,-0.011 9.113,-0.011 C10.148,-0.011 11.917,0.556 12.583,2.419 C12.848,3.161 12.669,6.118 12.389,6.831 Z" id="path-1" class="cls-2" fill-rule="evenodd"/>
</svg>
