<svg xmlns="http://www.w3.org/2000/svg" xmlns:xlink="http://www.w3.org/1999/xlink" preserveAspectRatio="xMidYMid" width="8" height="16" viewBox="0 0 8 16">
  <defs>
    <style>

      .cls-2 {
        fill: #ffffff;
      }
    </style>
  </defs>
  <path d="M5.339,16.000 C5.339,16.000 2.006,16.000 2.006,16.000 C2.006,16.000 2.006,8.000 2.006,8.000 C2.006,8.000 0.006,8.000 0.006,8.000 C0.006,8.000 0.006,5.333 0.006,5.333 C0.006,5.333 2.006,5.333 2.006,5.333 C2.006,5.333 2.006,3.707 2.006,3.707 C2.006,1.484 2.680,0.000 5.299,0.000 C5.299,0.000 7.339,0.000 7.339,0.000 C7.339,0.000 7.339,2.667 7.339,2.667 C7.339,2.667 6.117,2.667 6.117,2.667 C5.097,2.667 5.030,3.153 5.030,3.863 C5.030,3.863 5.026,5.333 5.026,5.333 C5.026,5.333 7.494,5.333 7.494,5.333 C7.494,5.333 7.206,8.000 7.206,8.000 C7.206,8.000 5.339,8.000 5.339,8.000 C5.339,8.000 5.339,16.000 5.339,16.000 Z" id="path-1" class="cls-2" fill-rule="evenodd"/>
</svg>
