<svg xmlns="http://www.w3.org/2000/svg" xmlns:xlink="http://www.w3.org/1999/xlink" preserveAspectRatio="xMidYMid" width="26" height="14" viewBox="0 0 26 14">
  <defs>
    <style>

      .cls-2 {
        fill: #ffffff;
      }
    </style>
  </defs>
  <path d="M23.807,3.880 C23.807,3.880 22.509,1.652 21.825,1.182 C21.143,0.712 20.015,0.144 18.498,1.341 C17.257,2.323 16.847,2.739 16.739,2.856 C16.739,2.856 11.578,0.001 11.578,0.001 C11.578,0.001 11.578,0.277 11.578,0.277 C11.578,0.277 13.060,1.745 13.060,1.745 C13.060,1.745 11.403,1.091 11.403,1.091 C11.403,1.091 12.479,2.312 12.479,2.312 C12.479,2.312 11.215,1.817 11.215,1.817 C11.215,1.817 11.378,2.138 11.378,2.138 C10.385,1.397 9.430,0.731 9.004,0.579 C9.191,0.960 10.184,2.202 10.184,2.202 C10.184,2.202 8.747,1.395 8.747,1.395 C8.747,1.395 9.607,2.718 9.607,2.718 C9.607,2.718 8.392,2.043 8.392,2.043 C8.392,2.043 12.270,6.151 12.270,6.151 C12.270,6.151 5.361,11.634 0.013,6.027 C0.013,6.027 8.649,16.295 15.771,13.882 C21.403,11.706 23.319,6.027 23.319,6.027 C23.319,6.027 23.751,5.488 24.308,5.276 C24.864,5.064 25.428,4.719 25.428,4.719 C25.428,4.719 23.807,3.880 23.807,3.880 ZM21.505,4.788 C21.023,4.788 20.629,4.251 20.629,3.588 C20.629,2.927 21.023,2.388 21.505,2.388 C21.990,2.388 22.382,2.927 22.382,3.588 C22.382,4.251 21.990,4.788 21.505,4.788 Z" id="path-1" class="cls-2" fill-rule="evenodd"/>
</svg>
